<mxfile host="Electron" agent="Mozilla/5.0 (Windows NT 10.0; Win64; x64) AppleWebKit/537.36 (KHTML, like Gecko) draw.io/24.7.17 Chrome/128.0.6613.36 Electron/32.0.1 Safari/537.36" version="24.7.17">
  <diagram name="第 1 页" id="VIQIuGn3ec8fBQR2KspF">
    <mxGraphModel dx="819" dy="482" grid="1" gridSize="10" guides="1" tooltips="1" connect="1" arrows="1" fold="1" page="0" pageScale="1" pageWidth="827" pageHeight="1169" math="0" shadow="0">
      <root>
        <mxCell id="0" />
        <mxCell id="1" parent="0" />
        <mxCell id="X5T_Op0z2veCH_wAgRr7-8" style="edgeStyle=orthogonalEdgeStyle;rounded=0;orthogonalLoop=1;jettySize=auto;html=1;" parent="1" source="X5T_Op0z2veCH_wAgRr7-1" target="X5T_Op0z2veCH_wAgRr7-5" edge="1">
          <mxGeometry relative="1" as="geometry" />
        </mxCell>
        <mxCell id="X5T_Op0z2veCH_wAgRr7-1" value="开始" style="rounded=1;whiteSpace=wrap;html=1;" parent="1" vertex="1">
          <mxGeometry x="200" y="40" width="90" height="30" as="geometry" />
        </mxCell>
        <mxCell id="X5T_Op0z2veCH_wAgRr7-10" style="edgeStyle=orthogonalEdgeStyle;rounded=0;orthogonalLoop=1;jettySize=auto;html=1;" parent="1" source="X5T_Op0z2veCH_wAgRr7-5" target="X5T_Op0z2veCH_wAgRr7-7" edge="1">
          <mxGeometry relative="1" as="geometry" />
        </mxCell>
        <mxCell id="X5T_Op0z2veCH_wAgRr7-5" value="&lt;div&gt;加载页&lt;/div&gt;&lt;div&gt;1. 检查 OCR 识别引擎&lt;/div&gt;&lt;div&gt;2. 加载小猿口算小助手核心配置文件 xyks-config.properties&lt;/div&gt;&lt;div&gt;3. 加载绘制符号映射文件 symbol-mapper.json&lt;/div&gt;&lt;div&gt;4. 注册系统全局键盘钩子&lt;/div&gt;" style="rounded=1;whiteSpace=wrap;html=1;align=left;horizontal=1;spacingLeft=10;" parent="1" vertex="1">
          <mxGeometry x="135" y="140" width="370" height="120" as="geometry" />
        </mxCell>
        <mxCell id="X5T_Op0z2veCH_wAgRr7-6" value="结束" style="rounded=1;whiteSpace=wrap;html=1;" parent="1" vertex="1">
          <mxGeometry x="275" y="630" width="90" height="30" as="geometry" />
        </mxCell>
        <mxCell id="X5T_Op0z2veCH_wAgRr7-12" style="edgeStyle=orthogonalEdgeStyle;rounded=0;orthogonalLoop=1;jettySize=auto;html=1;entryX=0.5;entryY=0;entryDx=0;entryDy=0;" parent="1" source="X5T_Op0z2veCH_wAgRr7-7" target="X5T_Op0z2veCH_wAgRr7-11" edge="1">
          <mxGeometry relative="1" as="geometry" />
        </mxCell>
        <mxCell id="X5T_Op0z2veCH_wAgRr7-13" value="否" style="edgeLabel;html=1;align=center;verticalAlign=middle;resizable=0;points=[];" parent="X5T_Op0z2veCH_wAgRr7-12" vertex="1" connectable="0">
          <mxGeometry x="-0.1532" y="-1" relative="1" as="geometry">
            <mxPoint as="offset" />
          </mxGeometry>
        </mxCell>
        <mxCell id="X5T_Op0z2veCH_wAgRr7-22" style="edgeStyle=orthogonalEdgeStyle;rounded=0;orthogonalLoop=1;jettySize=auto;html=1;entryX=0;entryY=0.5;entryDx=0;entryDy=0;" parent="1" source="X5T_Op0z2veCH_wAgRr7-7" target="X5T_Op0z2veCH_wAgRr7-16" edge="1">
          <mxGeometry relative="1" as="geometry" />
        </mxCell>
        <mxCell id="X5T_Op0z2veCH_wAgRr7-23" value="是" style="edgeLabel;html=1;align=center;verticalAlign=middle;resizable=0;points=[];" parent="X5T_Op0z2veCH_wAgRr7-22" vertex="1" connectable="0">
          <mxGeometry x="-0.1849" y="2" relative="1" as="geometry">
            <mxPoint as="offset" />
          </mxGeometry>
        </mxCell>
        <mxCell id="X5T_Op0z2veCH_wAgRr7-7" value="加载通过" style="rhombus;whiteSpace=wrap;html=1;" parent="1" vertex="1">
          <mxGeometry x="260" y="320" width="120" height="70" as="geometry" />
        </mxCell>
        <mxCell id="X5T_Op0z2veCH_wAgRr7-14" style="edgeStyle=orthogonalEdgeStyle;rounded=0;orthogonalLoop=1;jettySize=auto;html=1;entryX=0.5;entryY=0;entryDx=0;entryDy=0;" parent="1" source="X5T_Op0z2veCH_wAgRr7-11" target="X5T_Op0z2veCH_wAgRr7-6" edge="1">
          <mxGeometry relative="1" as="geometry" />
        </mxCell>
        <mxCell id="X5T_Op0z2veCH_wAgRr7-11" value="错误展示页&lt;div&gt;为什么加载失败了&lt;/div&gt;" style="rounded=1;whiteSpace=wrap;html=1;align=left;verticalAlign=middle;spacingLeft=10;" parent="1" vertex="1">
          <mxGeometry x="250" y="490" width="140" height="80" as="geometry" />
        </mxCell>
        <mxCell id="X5T_Op0z2veCH_wAgRr7-15" value="设置页面（主要、次要）" style="rounded=1;whiteSpace=wrap;html=1;spacingLeft=10;align=left;" parent="1" vertex="1">
          <mxGeometry x="810" y="460" width="170" height="60" as="geometry" />
        </mxCell>
        <mxCell id="X5T_Op0z2veCH_wAgRr7-18" style="edgeStyle=orthogonalEdgeStyle;rounded=0;orthogonalLoop=1;jettySize=auto;html=1;" parent="1" source="X5T_Op0z2veCH_wAgRr7-16" target="X5T_Op0z2veCH_wAgRr7-17" edge="1">
          <mxGeometry relative="1" as="geometry" />
        </mxCell>
        <mxCell id="X5T_Op0z2veCH_wAgRr7-19" value="否" style="edgeLabel;html=1;align=center;verticalAlign=middle;resizable=0;points=[];" parent="X5T_Op0z2veCH_wAgRr7-18" vertex="1" connectable="0">
          <mxGeometry x="-0.1194" relative="1" as="geometry">
            <mxPoint as="offset" />
          </mxGeometry>
        </mxCell>
        <mxCell id="X5T_Op0z2veCH_wAgRr7-20" style="edgeStyle=orthogonalEdgeStyle;rounded=0;orthogonalLoop=1;jettySize=auto;html=1;entryX=0.5;entryY=0;entryDx=0;entryDy=0;" parent="1" source="X5T_Op0z2veCH_wAgRr7-16" target="X5T_Op0z2veCH_wAgRr7-15" edge="1">
          <mxGeometry relative="1" as="geometry">
            <Array as="points">
              <mxPoint x="895" y="355" />
            </Array>
          </mxGeometry>
        </mxCell>
        <mxCell id="X5T_Op0z2veCH_wAgRr7-21" value="是" style="edgeLabel;html=1;align=center;verticalAlign=middle;resizable=0;points=[];" parent="X5T_Op0z2veCH_wAgRr7-20" vertex="1" connectable="0">
          <mxGeometry x="0.0087" relative="1" as="geometry">
            <mxPoint as="offset" />
          </mxGeometry>
        </mxCell>
        <mxCell id="X5T_Op0z2veCH_wAgRr7-16" value="配置文件是初始化吗" style="rhombus;whiteSpace=wrap;html=1;" parent="1" vertex="1">
          <mxGeometry x="500" y="310" width="175" height="90" as="geometry" />
        </mxCell>
        <mxCell id="X5T_Op0z2veCH_wAgRr7-27" style="edgeStyle=orthogonalEdgeStyle;rounded=0;orthogonalLoop=1;jettySize=auto;html=1;entryX=0.25;entryY=0;entryDx=0;entryDy=0;" parent="1" source="X5T_Op0z2veCH_wAgRr7-17" target="X5T_Op0z2veCH_wAgRr7-26" edge="1">
          <mxGeometry relative="1" as="geometry" />
        </mxCell>
        <mxCell id="X5T_Op0z2veCH_wAgRr7-28" value="否" style="edgeLabel;html=1;align=center;verticalAlign=middle;resizable=0;points=[];" parent="X5T_Op0z2veCH_wAgRr7-27" vertex="1" connectable="0">
          <mxGeometry x="0.0354" relative="1" as="geometry">
            <mxPoint as="offset" />
          </mxGeometry>
        </mxCell>
        <mxCell id="X5T_Op0z2veCH_wAgRr7-17" value="用户是否要设置" style="rhombus;whiteSpace=wrap;html=1;" parent="1" vertex="1">
          <mxGeometry x="507.5" y="480" width="160" height="80" as="geometry" />
        </mxCell>
        <mxCell id="X5T_Op0z2veCH_wAgRr7-24" style="edgeStyle=orthogonalEdgeStyle;rounded=0;orthogonalLoop=1;jettySize=auto;html=1;entryX=0;entryY=0.5;entryDx=0;entryDy=0;" parent="1" source="X5T_Op0z2veCH_wAgRr7-17" target="X5T_Op0z2veCH_wAgRr7-15" edge="1">
          <mxGeometry relative="1" as="geometry" />
        </mxCell>
        <mxCell id="X5T_Op0z2veCH_wAgRr7-25" value="是" style="edgeLabel;html=1;align=center;verticalAlign=middle;resizable=0;points=[];" parent="X5T_Op0z2veCH_wAgRr7-24" vertex="1" connectable="0">
          <mxGeometry x="-0.1986" y="2" relative="1" as="geometry">
            <mxPoint as="offset" />
          </mxGeometry>
        </mxCell>
        <mxCell id="X5T_Op0z2veCH_wAgRr7-29" style="edgeStyle=orthogonalEdgeStyle;rounded=0;orthogonalLoop=1;jettySize=auto;html=1;entryX=0.65;entryY=0.016;entryDx=0;entryDy=0;entryPerimeter=0;" parent="1" source="X5T_Op0z2veCH_wAgRr7-15" target="X5T_Op0z2veCH_wAgRr7-26" edge="1">
          <mxGeometry relative="1" as="geometry" />
        </mxCell>
        <mxCell id="X5T_Op0z2veCH_wAgRr7-225" value="" style="group" parent="1" vertex="1" connectable="0">
          <mxGeometry x="450" y="700" width="610" height="420" as="geometry" />
        </mxCell>
        <mxCell id="X5T_Op0z2veCH_wAgRr7-26" value="答题页面&lt;div&gt;&lt;br&gt;&lt;/div&gt;&lt;div&gt;状态栏：就绪、正在答题（回合?/?）、答题结束&lt;span style=&quot;background-color: initial;&quot;&gt;（回合?/?）&lt;/span&gt;&lt;span style=&quot;background-color: initial;&quot;&gt;、准备匹配&lt;/span&gt;&lt;span style=&quot;background-color: initial;&quot;&gt;（回合?/?）&lt;/span&gt;&lt;span style=&quot;background-color: initial;&quot;&gt;、进入匹配&lt;/span&gt;&lt;span style=&quot;background-color: initial;&quot;&gt;（回合?/?）&lt;/span&gt;&lt;span style=&quot;background-color: initial;&quot;&gt;、&lt;/span&gt;&lt;/div&gt;&lt;div&gt;&lt;span style=&quot;background-color: initial;&quot;&gt;&amp;nbsp; &amp;nbsp; &amp;nbsp; &amp;nbsp; &amp;nbsp; &amp;nbsp; &amp;nbsp; &amp;nbsp;完成答题目标（x回合）、答题中断：用户中断（回合?/?）、&lt;/span&gt;&lt;span style=&quot;background-color: initial;&quot;&gt;答题中断：无法识别题目（回合?/?）&lt;/span&gt;&lt;/div&gt;&lt;div&gt;&lt;span style=&quot;background-color: initial;&quot;&gt;&lt;br&gt;&lt;/span&gt;&lt;/div&gt;&lt;div&gt;&lt;span style=&quot;background-color: initial;&quot;&gt;运行表格：&lt;/span&gt;&lt;br&gt;&lt;/div&gt;&lt;div&gt;&lt;span style=&quot;background-color: initial;&quot;&gt;&lt;br&gt;&lt;/span&gt;&lt;/div&gt;&lt;div&gt;&lt;br&gt;&lt;/div&gt;&lt;div&gt;&lt;span style=&quot;background-color: initial;&quot;&gt;&lt;br&gt;&lt;/span&gt;&lt;/div&gt;&lt;div&gt;&lt;span style=&quot;background-color: initial;&quot;&gt;&lt;br&gt;&lt;/span&gt;&lt;/div&gt;&lt;div&gt;&lt;span style=&quot;background-color: initial;&quot;&gt;&lt;br&gt;&lt;/span&gt;&lt;/div&gt;&lt;div&gt;&lt;span style=&quot;background-color: initial;&quot;&gt;&lt;br&gt;&lt;/span&gt;&lt;/div&gt;&lt;div&gt;&lt;span style=&quot;background-color: initial;&quot;&gt;&lt;br&gt;&lt;/span&gt;&lt;/div&gt;&lt;div&gt;&lt;span style=&quot;background-color: initial;&quot;&gt;&lt;br&gt;&lt;/span&gt;&lt;/div&gt;&lt;div&gt;&lt;span style=&quot;background-color: initial;&quot;&gt;&lt;br&gt;&lt;/span&gt;&lt;/div&gt;&lt;div&gt;&lt;span style=&quot;background-color: initial;&quot;&gt;&lt;br&gt;&lt;/span&gt;&lt;/div&gt;&lt;div&gt;&lt;span style=&quot;background-color: initial;&quot;&gt;&lt;br&gt;&lt;/span&gt;&lt;/div&gt;&lt;div&gt;&lt;span style=&quot;background-color: initial;&quot;&gt;&lt;br&gt;&lt;/span&gt;&lt;/div&gt;&lt;div&gt;&lt;span style=&quot;background-color: initial;&quot;&gt;&lt;br&gt;&lt;/span&gt;&lt;/div&gt;&lt;div&gt;&lt;span style=&quot;background-color: initial;&quot;&gt;&lt;br&gt;&lt;/span&gt;&lt;/div&gt;&lt;div&gt;&lt;span style=&quot;background-color: initial;&quot;&gt;&lt;br&gt;&lt;/span&gt;&lt;/div&gt;&lt;div&gt;&lt;span style=&quot;background-color: initial;&quot;&gt;&lt;br&gt;&lt;/span&gt;&lt;/div&gt;&lt;div&gt;&lt;span style=&quot;background-color: initial;&quot;&gt;&lt;br&gt;&lt;/span&gt;&lt;/div&gt;&lt;div&gt;&lt;span style=&quot;background-color: initial;&quot;&gt;&lt;br&gt;&lt;/span&gt;&lt;/div&gt;&lt;div&gt;&lt;span style=&quot;background-color: initial;&quot;&gt;&lt;br&gt;&lt;/span&gt;&lt;/div&gt;&lt;div&gt;&lt;span style=&quot;background-color: initial;&quot;&gt;&lt;br&gt;&lt;/span&gt;&lt;/div&gt;&lt;div&gt;&lt;span style=&quot;background-color: initial;&quot;&gt;&lt;br&gt;&lt;/span&gt;&lt;/div&gt;&lt;div&gt;答题小助手运行中，使用 Ctrl+Alt+Shift+F10 中断！&lt;/div&gt;" style="rounded=0;whiteSpace=wrap;html=1;spacingLeft=10;align=left;verticalAlign=top;" parent="X5T_Op0z2veCH_wAgRr7-225" vertex="1">
          <mxGeometry width="610" height="420" as="geometry" />
        </mxCell>
        <mxCell id="X5T_Op0z2veCH_wAgRr7-167" value="题号" style="swimlane;fontStyle=0;childLayout=stackLayout;horizontal=1;startSize=26;fillColor=none;horizontalStack=0;resizeParent=1;resizeParentMax=0;resizeLast=0;collapsible=1;marginBottom=0;html=1;align=center;" parent="X5T_Op0z2veCH_wAgRr7-225" vertex="1">
          <mxGeometry x="17.5" y="102" width="60" height="286" as="geometry" />
        </mxCell>
        <mxCell id="X5T_Op0z2veCH_wAgRr7-168" value="1" style="text;strokeColor=none;fillColor=none;align=center;verticalAlign=top;spacingLeft=4;spacingRight=4;overflow=hidden;rotatable=0;points=[[0,0.5],[1,0.5]];portConstraint=eastwest;whiteSpace=wrap;html=1;" parent="X5T_Op0z2veCH_wAgRr7-167" vertex="1">
          <mxGeometry y="26" width="60" height="26" as="geometry" />
        </mxCell>
        <mxCell id="X5T_Op0z2veCH_wAgRr7-169" value="2" style="text;strokeColor=none;fillColor=none;align=center;verticalAlign=top;spacingLeft=4;spacingRight=4;overflow=hidden;rotatable=0;points=[[0,0.5],[1,0.5]];portConstraint=eastwest;whiteSpace=wrap;html=1;" parent="X5T_Op0z2veCH_wAgRr7-167" vertex="1">
          <mxGeometry y="52" width="60" height="26" as="geometry" />
        </mxCell>
        <mxCell id="X5T_Op0z2veCH_wAgRr7-173" value="3" style="text;strokeColor=none;fillColor=none;align=center;verticalAlign=top;spacingLeft=4;spacingRight=4;overflow=hidden;rotatable=0;points=[[0,0.5],[1,0.5]];portConstraint=eastwest;whiteSpace=wrap;html=1;" parent="X5T_Op0z2veCH_wAgRr7-167" vertex="1">
          <mxGeometry y="78" width="60" height="26" as="geometry" />
        </mxCell>
        <mxCell id="X5T_Op0z2veCH_wAgRr7-174" value="4" style="text;strokeColor=none;fillColor=none;align=center;verticalAlign=top;spacingLeft=4;spacingRight=4;overflow=hidden;rotatable=0;points=[[0,0.5],[1,0.5]];portConstraint=eastwest;whiteSpace=wrap;html=1;" parent="X5T_Op0z2veCH_wAgRr7-167" vertex="1">
          <mxGeometry y="104" width="60" height="26" as="geometry" />
        </mxCell>
        <mxCell id="X5T_Op0z2veCH_wAgRr7-175" value="( 5 )" style="text;strokeColor=none;fillColor=none;align=center;verticalAlign=top;spacingLeft=4;spacingRight=4;overflow=hidden;rotatable=0;points=[[0,0.5],[1,0.5]];portConstraint=eastwest;whiteSpace=wrap;html=1;" parent="X5T_Op0z2veCH_wAgRr7-167" vertex="1">
          <mxGeometry y="130" width="60" height="26" as="geometry" />
        </mxCell>
        <mxCell id="X5T_Op0z2veCH_wAgRr7-172" value="6" style="text;strokeColor=none;fillColor=none;align=center;verticalAlign=top;spacingLeft=4;spacingRight=4;overflow=hidden;rotatable=0;points=[[0,0.5],[1,0.5]];portConstraint=eastwest;whiteSpace=wrap;html=1;" parent="X5T_Op0z2veCH_wAgRr7-167" vertex="1">
          <mxGeometry y="156" width="60" height="26" as="geometry" />
        </mxCell>
        <mxCell id="X5T_Op0z2veCH_wAgRr7-171" value="7" style="text;strokeColor=none;fillColor=none;align=center;verticalAlign=top;spacingLeft=4;spacingRight=4;overflow=hidden;rotatable=0;points=[[0,0.5],[1,0.5]];portConstraint=eastwest;whiteSpace=wrap;html=1;" parent="X5T_Op0z2veCH_wAgRr7-167" vertex="1">
          <mxGeometry y="182" width="60" height="26" as="geometry" />
        </mxCell>
        <mxCell id="X5T_Op0z2veCH_wAgRr7-170" value="8" style="text;strokeColor=none;fillColor=none;align=center;verticalAlign=top;spacingLeft=4;spacingRight=4;overflow=hidden;rotatable=0;points=[[0,0.5],[1,0.5]];portConstraint=eastwest;whiteSpace=wrap;html=1;" parent="X5T_Op0z2veCH_wAgRr7-167" vertex="1">
          <mxGeometry y="208" width="60" height="26" as="geometry" />
        </mxCell>
        <mxCell id="X5T_Op0z2veCH_wAgRr7-178" value="9" style="text;strokeColor=none;fillColor=none;align=center;verticalAlign=top;spacingLeft=4;spacingRight=4;overflow=hidden;rotatable=0;points=[[0,0.5],[1,0.5]];portConstraint=eastwest;whiteSpace=wrap;html=1;" parent="X5T_Op0z2veCH_wAgRr7-167" vertex="1">
          <mxGeometry y="234" width="60" height="26" as="geometry" />
        </mxCell>
        <mxCell id="X5T_Op0z2veCH_wAgRr7-177" value="10" style="text;strokeColor=none;fillColor=none;align=center;verticalAlign=top;spacingLeft=4;spacingRight=4;overflow=hidden;rotatable=0;points=[[0,0.5],[1,0.5]];portConstraint=eastwest;whiteSpace=wrap;html=1;" parent="X5T_Op0z2veCH_wAgRr7-167" vertex="1">
          <mxGeometry y="260" width="60" height="26" as="geometry" />
        </mxCell>
        <mxCell id="X5T_Op0z2veCH_wAgRr7-179" value="识别题目" style="swimlane;fontStyle=0;childLayout=stackLayout;horizontal=1;startSize=26;fillColor=none;horizontalStack=0;resizeParent=1;resizeParentMax=0;resizeLast=0;collapsible=1;marginBottom=0;html=1;align=center;swimlaneFillColor=none;strokeColor=default;swimlaneLine=1;glass=0;rounded=0;shadow=0;" parent="X5T_Op0z2veCH_wAgRr7-225" vertex="1">
          <mxGeometry x="77.5" y="102" width="110" height="286" as="geometry">
            <mxRectangle x="490" y="1090" width="90" height="30" as="alternateBounds" />
          </mxGeometry>
        </mxCell>
        <mxCell id="X5T_Op0z2veCH_wAgRr7-180" value="1+1+2=?" style="text;strokeColor=none;fillColor=none;align=center;verticalAlign=top;spacingLeft=4;spacingRight=4;overflow=hidden;rotatable=0;points=[[0,0.5],[1,0.5]];portConstraint=eastwest;whiteSpace=wrap;html=1;" parent="X5T_Op0z2veCH_wAgRr7-179" vertex="1">
          <mxGeometry y="26" width="110" height="26" as="geometry" />
        </mxCell>
        <mxCell id="X5T_Op0z2veCH_wAgRr7-181" value="6+4+9=?" style="text;strokeColor=none;fillColor=none;align=center;verticalAlign=top;spacingLeft=4;spacingRight=4;overflow=hidden;rotatable=0;points=[[0,0.5],[1,0.5]];portConstraint=eastwest;whiteSpace=wrap;html=1;" parent="X5T_Op0z2veCH_wAgRr7-179" vertex="1">
          <mxGeometry y="52" width="110" height="26" as="geometry" />
        </mxCell>
        <mxCell id="X5T_Op0z2veCH_wAgRr7-182" value="3*2/6=?" style="text;strokeColor=none;fillColor=none;align=center;verticalAlign=top;spacingLeft=4;spacingRight=4;overflow=hidden;rotatable=0;points=[[0,0.5],[1,0.5]];portConstraint=eastwest;whiteSpace=wrap;html=1;" parent="X5T_Op0z2veCH_wAgRr7-179" vertex="1">
          <mxGeometry y="78" width="110" height="26" as="geometry" />
        </mxCell>
        <mxCell id="X5T_Op0z2veCH_wAgRr7-183" value="18/3+7=?" style="text;strokeColor=none;fillColor=none;align=center;verticalAlign=top;spacingLeft=4;spacingRight=4;overflow=hidden;rotatable=0;points=[[0,0.5],[1,0.5]];portConstraint=eastwest;whiteSpace=wrap;html=1;" parent="X5T_Op0z2veCH_wAgRr7-179" vertex="1">
          <mxGeometry y="104" width="110" height="26" as="geometry" />
        </mxCell>
        <mxCell id="X5T_Op0z2veCH_wAgRr7-184" value="(15-13)/2=?" style="text;strokeColor=none;fillColor=none;align=center;verticalAlign=top;spacingLeft=4;spacingRight=4;overflow=hidden;rotatable=0;points=[[0,0.5],[1,0.5]];portConstraint=eastwest;whiteSpace=wrap;html=1;" parent="X5T_Op0z2veCH_wAgRr7-179" vertex="1">
          <mxGeometry y="130" width="110" height="26" as="geometry" />
        </mxCell>
        <mxCell id="X5T_Op0z2veCH_wAgRr7-185" value="64/8/4=?" style="text;strokeColor=none;fillColor=none;align=center;verticalAlign=top;spacingLeft=4;spacingRight=4;overflow=hidden;rotatable=0;points=[[0,0.5],[1,0.5]];portConstraint=eastwest;whiteSpace=wrap;html=1;" parent="X5T_Op0z2veCH_wAgRr7-179" vertex="1">
          <mxGeometry y="156" width="110" height="26" as="geometry" />
        </mxCell>
        <mxCell id="X5T_Op0z2veCH_wAgRr7-186" value="-" style="text;strokeColor=none;fillColor=none;align=center;verticalAlign=top;spacingLeft=4;spacingRight=4;overflow=hidden;rotatable=0;points=[[0,0.5],[1,0.5]];portConstraint=eastwest;whiteSpace=wrap;html=1;" parent="X5T_Op0z2veCH_wAgRr7-179" vertex="1">
          <mxGeometry y="182" width="110" height="26" as="geometry" />
        </mxCell>
        <mxCell id="X5T_Op0z2veCH_wAgRr7-187" value="-" style="text;strokeColor=none;fillColor=none;align=center;verticalAlign=top;spacingLeft=4;spacingRight=4;overflow=hidden;rotatable=0;points=[[0,0.5],[1,0.5]];portConstraint=eastwest;whiteSpace=wrap;html=1;" parent="X5T_Op0z2veCH_wAgRr7-179" vertex="1">
          <mxGeometry y="208" width="110" height="26" as="geometry" />
        </mxCell>
        <mxCell id="X5T_Op0z2veCH_wAgRr7-188" value="-" style="text;strokeColor=none;fillColor=none;align=center;verticalAlign=top;spacingLeft=4;spacingRight=4;overflow=hidden;rotatable=0;points=[[0,0.5],[1,0.5]];portConstraint=eastwest;whiteSpace=wrap;html=1;" parent="X5T_Op0z2veCH_wAgRr7-179" vertex="1">
          <mxGeometry y="234" width="110" height="26" as="geometry" />
        </mxCell>
        <mxCell id="X5T_Op0z2veCH_wAgRr7-189" value="-" style="text;strokeColor=none;fillColor=none;align=center;verticalAlign=top;spacingLeft=4;spacingRight=4;overflow=hidden;rotatable=0;points=[[0,0.5],[1,0.5]];portConstraint=eastwest;whiteSpace=wrap;html=1;" parent="X5T_Op0z2veCH_wAgRr7-179" vertex="1">
          <mxGeometry y="260" width="110" height="26" as="geometry" />
        </mxCell>
        <mxCell id="X5T_Op0z2veCH_wAgRr7-191" value="判题结果" style="swimlane;fontStyle=0;childLayout=stackLayout;horizontal=1;startSize=26;fillColor=none;horizontalStack=0;resizeParent=1;resizeParentMax=0;resizeLast=0;collapsible=1;marginBottom=0;html=1;align=center;" parent="X5T_Op0z2veCH_wAgRr7-225" vertex="1">
          <mxGeometry x="337.5" y="102" width="90" height="286" as="geometry" />
        </mxCell>
        <mxCell id="X5T_Op0z2veCH_wAgRr7-192" value="4" style="text;strokeColor=none;fillColor=none;align=center;verticalAlign=top;spacingLeft=4;spacingRight=4;overflow=hidden;rotatable=0;points=[[0,0.5],[1,0.5]];portConstraint=eastwest;whiteSpace=wrap;html=1;" parent="X5T_Op0z2veCH_wAgRr7-191" vertex="1">
          <mxGeometry y="26" width="90" height="26" as="geometry" />
        </mxCell>
        <mxCell id="X5T_Op0z2veCH_wAgRr7-193" value="19" style="text;strokeColor=none;fillColor=none;align=center;verticalAlign=top;spacingLeft=4;spacingRight=4;overflow=hidden;rotatable=0;points=[[0,0.5],[1,0.5]];portConstraint=eastwest;whiteSpace=wrap;html=1;" parent="X5T_Op0z2veCH_wAgRr7-191" vertex="1">
          <mxGeometry y="52" width="90" height="26" as="geometry" />
        </mxCell>
        <mxCell id="X5T_Op0z2veCH_wAgRr7-194" value="1" style="text;strokeColor=none;fillColor=none;align=center;verticalAlign=top;spacingLeft=4;spacingRight=4;overflow=hidden;rotatable=0;points=[[0,0.5],[1,0.5]];portConstraint=eastwest;whiteSpace=wrap;html=1;" parent="X5T_Op0z2veCH_wAgRr7-191" vertex="1">
          <mxGeometry y="78" width="90" height="26" as="geometry" />
        </mxCell>
        <mxCell id="X5T_Op0z2veCH_wAgRr7-195" value="13" style="text;strokeColor=none;fillColor=none;align=center;verticalAlign=top;spacingLeft=4;spacingRight=4;overflow=hidden;rotatable=0;points=[[0,0.5],[1,0.5]];portConstraint=eastwest;whiteSpace=wrap;html=1;" parent="X5T_Op0z2veCH_wAgRr7-191" vertex="1">
          <mxGeometry y="104" width="90" height="26" as="geometry" />
        </mxCell>
        <mxCell id="X5T_Op0z2veCH_wAgRr7-196" value="1" style="text;strokeColor=none;fillColor=none;align=center;verticalAlign=top;spacingLeft=4;spacingRight=4;overflow=hidden;rotatable=0;points=[[0,0.5],[1,0.5]];portConstraint=eastwest;whiteSpace=wrap;html=1;" parent="X5T_Op0z2veCH_wAgRr7-191" vertex="1">
          <mxGeometry y="130" width="90" height="26" as="geometry" />
        </mxCell>
        <mxCell id="X5T_Op0z2veCH_wAgRr7-197" value="2" style="text;strokeColor=none;fillColor=none;align=center;verticalAlign=top;spacingLeft=4;spacingRight=4;overflow=hidden;rotatable=0;points=[[0,0.5],[1,0.5]];portConstraint=eastwest;whiteSpace=wrap;html=1;" parent="X5T_Op0z2veCH_wAgRr7-191" vertex="1">
          <mxGeometry y="156" width="90" height="26" as="geometry" />
        </mxCell>
        <mxCell id="X5T_Op0z2veCH_wAgRr7-198" value="-" style="text;strokeColor=none;fillColor=none;align=center;verticalAlign=top;spacingLeft=4;spacingRight=4;overflow=hidden;rotatable=0;points=[[0,0.5],[1,0.5]];portConstraint=eastwest;whiteSpace=wrap;html=1;" parent="X5T_Op0z2veCH_wAgRr7-191" vertex="1">
          <mxGeometry y="182" width="90" height="26" as="geometry" />
        </mxCell>
        <mxCell id="X5T_Op0z2veCH_wAgRr7-199" value="-" style="text;strokeColor=none;fillColor=none;align=center;verticalAlign=top;spacingLeft=4;spacingRight=4;overflow=hidden;rotatable=0;points=[[0,0.5],[1,0.5]];portConstraint=eastwest;whiteSpace=wrap;html=1;" parent="X5T_Op0z2veCH_wAgRr7-191" vertex="1">
          <mxGeometry y="208" width="90" height="26" as="geometry" />
        </mxCell>
        <mxCell id="X5T_Op0z2veCH_wAgRr7-200" value="-" style="text;strokeColor=none;fillColor=none;align=center;verticalAlign=top;spacingLeft=4;spacingRight=4;overflow=hidden;rotatable=0;points=[[0,0.5],[1,0.5]];portConstraint=eastwest;whiteSpace=wrap;html=1;" parent="X5T_Op0z2veCH_wAgRr7-191" vertex="1">
          <mxGeometry y="234" width="90" height="26" as="geometry" />
        </mxCell>
        <mxCell id="X5T_Op0z2veCH_wAgRr7-201" value="-" style="text;strokeColor=none;fillColor=none;align=center;verticalAlign=top;spacingLeft=4;spacingRight=4;overflow=hidden;rotatable=0;points=[[0,0.5],[1,0.5]];portConstraint=eastwest;whiteSpace=wrap;html=1;" parent="X5T_Op0z2veCH_wAgRr7-191" vertex="1">
          <mxGeometry y="260" width="90" height="26" as="geometry" />
        </mxCell>
        <mxCell id="X5T_Op0z2veCH_wAgRr7-202" value="状态" style="swimlane;fontStyle=0;childLayout=stackLayout;horizontal=1;startSize=26;fillColor=none;horizontalStack=0;resizeParent=1;resizeParentMax=0;resizeLast=0;collapsible=1;marginBottom=0;html=1;align=center;" parent="X5T_Op0z2veCH_wAgRr7-225" vertex="1">
          <mxGeometry x="427.5" y="102" width="90" height="286" as="geometry" />
        </mxCell>
        <mxCell id="X5T_Op0z2veCH_wAgRr7-203" value="通过" style="text;strokeColor=none;fillColor=none;align=center;verticalAlign=top;spacingLeft=4;spacingRight=4;overflow=hidden;rotatable=0;points=[[0,0.5],[1,0.5]];portConstraint=eastwest;whiteSpace=wrap;html=1;" parent="X5T_Op0z2veCH_wAgRr7-202" vertex="1">
          <mxGeometry y="26" width="90" height="26" as="geometry" />
        </mxCell>
        <mxCell id="X5T_Op0z2veCH_wAgRr7-204" value="通过" style="text;strokeColor=none;fillColor=none;align=center;verticalAlign=top;spacingLeft=4;spacingRight=4;overflow=hidden;rotatable=0;points=[[0,0.5],[1,0.5]];portConstraint=eastwest;whiteSpace=wrap;html=1;" parent="X5T_Op0z2veCH_wAgRr7-202" vertex="1">
          <mxGeometry y="52" width="90" height="26" as="geometry" />
        </mxCell>
        <mxCell id="X5T_Op0z2veCH_wAgRr7-205" value="通过" style="text;strokeColor=none;fillColor=none;align=center;verticalAlign=top;spacingLeft=4;spacingRight=4;overflow=hidden;rotatable=0;points=[[0,0.5],[1,0.5]];portConstraint=eastwest;whiteSpace=wrap;html=1;" parent="X5T_Op0z2veCH_wAgRr7-202" vertex="1">
          <mxGeometry y="78" width="90" height="26" as="geometry" />
        </mxCell>
        <mxCell id="X5T_Op0z2veCH_wAgRr7-206" value="通过" style="text;strokeColor=none;fillColor=none;align=center;verticalAlign=top;spacingLeft=4;spacingRight=4;overflow=hidden;rotatable=0;points=[[0,0.5],[1,0.5]];portConstraint=eastwest;whiteSpace=wrap;html=1;" parent="X5T_Op0z2veCH_wAgRr7-202" vertex="1">
          <mxGeometry y="104" width="90" height="26" as="geometry" />
        </mxCell>
        <mxCell id="X5T_Op0z2veCH_wAgRr7-207" value="作答中" style="text;strokeColor=none;fillColor=none;align=center;verticalAlign=top;spacingLeft=4;spacingRight=4;overflow=hidden;rotatable=0;points=[[0,0.5],[1,0.5]];portConstraint=eastwest;whiteSpace=wrap;html=1;" parent="X5T_Op0z2veCH_wAgRr7-202" vertex="1">
          <mxGeometry y="130" width="90" height="26" as="geometry" />
        </mxCell>
        <mxCell id="X5T_Op0z2veCH_wAgRr7-208" value="等待中" style="text;strokeColor=none;fillColor=none;align=center;verticalAlign=top;spacingLeft=4;spacingRight=4;overflow=hidden;rotatable=0;points=[[0,0.5],[1,0.5]];portConstraint=eastwest;whiteSpace=wrap;html=1;" parent="X5T_Op0z2veCH_wAgRr7-202" vertex="1">
          <mxGeometry y="156" width="90" height="26" as="geometry" />
        </mxCell>
        <mxCell id="X5T_Op0z2veCH_wAgRr7-209" value="-" style="text;strokeColor=none;fillColor=none;align=center;verticalAlign=top;spacingLeft=4;spacingRight=4;overflow=hidden;rotatable=0;points=[[0,0.5],[1,0.5]];portConstraint=eastwest;whiteSpace=wrap;html=1;" parent="X5T_Op0z2veCH_wAgRr7-202" vertex="1">
          <mxGeometry y="182" width="90" height="26" as="geometry" />
        </mxCell>
        <mxCell id="X5T_Op0z2veCH_wAgRr7-210" value="-" style="text;strokeColor=none;fillColor=none;align=center;verticalAlign=top;spacingLeft=4;spacingRight=4;overflow=hidden;rotatable=0;points=[[0,0.5],[1,0.5]];portConstraint=eastwest;whiteSpace=wrap;html=1;" parent="X5T_Op0z2veCH_wAgRr7-202" vertex="1">
          <mxGeometry y="208" width="90" height="26" as="geometry" />
        </mxCell>
        <mxCell id="X5T_Op0z2veCH_wAgRr7-211" value="-" style="text;strokeColor=none;fillColor=none;align=center;verticalAlign=top;spacingLeft=4;spacingRight=4;overflow=hidden;rotatable=0;points=[[0,0.5],[1,0.5]];portConstraint=eastwest;whiteSpace=wrap;html=1;" parent="X5T_Op0z2veCH_wAgRr7-202" vertex="1">
          <mxGeometry y="234" width="90" height="26" as="geometry" />
        </mxCell>
        <mxCell id="X5T_Op0z2veCH_wAgRr7-212" value="-" style="text;strokeColor=none;fillColor=none;align=center;verticalAlign=top;spacingLeft=4;spacingRight=4;overflow=hidden;rotatable=0;points=[[0,0.5],[1,0.5]];portConstraint=eastwest;whiteSpace=wrap;html=1;" parent="X5T_Op0z2veCH_wAgRr7-202" vertex="1">
          <mxGeometry y="260" width="90" height="26" as="geometry" />
        </mxCell>
        <mxCell id="X5T_Op0z2veCH_wAgRr7-213" value="识别模型" style="swimlane;fontStyle=0;childLayout=stackLayout;horizontal=1;startSize=26;fillColor=none;horizontalStack=0;resizeParent=1;resizeParentMax=0;resizeLast=0;collapsible=1;marginBottom=0;html=1;align=center;" parent="X5T_Op0z2veCH_wAgRr7-225" vertex="1">
          <mxGeometry x="187.5" y="102" width="150" height="286" as="geometry" />
        </mxCell>
        <mxCell id="X5T_Op0z2veCH_wAgRr7-214" value="小猿模型" style="text;strokeColor=none;fillColor=none;align=center;verticalAlign=top;spacingLeft=4;spacingRight=4;overflow=hidden;rotatable=0;points=[[0,0.5],[1,0.5]];portConstraint=eastwest;whiteSpace=wrap;html=1;" parent="X5T_Op0z2veCH_wAgRr7-213" vertex="1">
          <mxGeometry y="26" width="150" height="26" as="geometry" />
        </mxCell>
        <mxCell id="X5T_Op0z2veCH_wAgRr7-215" value="小猿模型" style="text;strokeColor=none;fillColor=none;align=center;verticalAlign=top;spacingLeft=4;spacingRight=4;overflow=hidden;rotatable=0;points=[[0,0.5],[1,0.5]];portConstraint=eastwest;whiteSpace=wrap;html=1;" parent="X5T_Op0z2veCH_wAgRr7-213" vertex="1">
          <mxGeometry y="52" width="150" height="26" as="geometry" />
        </mxCell>
        <mxCell id="X5T_Op0z2veCH_wAgRr7-216" value="小猿模型" style="text;strokeColor=none;fillColor=none;align=center;verticalAlign=top;spacingLeft=4;spacingRight=4;overflow=hidden;rotatable=0;points=[[0,0.5],[1,0.5]];portConstraint=eastwest;whiteSpace=wrap;html=1;" parent="X5T_Op0z2veCH_wAgRr7-213" vertex="1">
          <mxGeometry y="78" width="150" height="26" as="geometry" />
        </mxCell>
        <mxCell id="X5T_Op0z2veCH_wAgRr7-217" value="ENG" style="text;strokeColor=none;fillColor=none;align=center;verticalAlign=top;spacingLeft=4;spacingRight=4;overflow=hidden;rotatable=0;points=[[0,0.5],[1,0.5]];portConstraint=eastwest;whiteSpace=wrap;html=1;" parent="X5T_Op0z2veCH_wAgRr7-213" vertex="1">
          <mxGeometry y="104" width="150" height="26" as="geometry" />
        </mxCell>
        <mxCell id="X5T_Op0z2veCH_wAgRr7-218" value="小猿模型" style="text;strokeColor=none;fillColor=none;align=center;verticalAlign=top;spacingLeft=4;spacingRight=4;overflow=hidden;rotatable=0;points=[[0,0.5],[1,0.5]];portConstraint=eastwest;whiteSpace=wrap;html=1;" parent="X5T_Op0z2veCH_wAgRr7-213" vertex="1">
          <mxGeometry y="130" width="150" height="26" as="geometry" />
        </mxCell>
        <mxCell id="X5T_Op0z2veCH_wAgRr7-219" value="Paddle+小猿模型" style="text;strokeColor=none;fillColor=none;align=center;verticalAlign=top;spacingLeft=4;spacingRight=4;overflow=hidden;rotatable=0;points=[[0,0.5],[1,0.5]];portConstraint=eastwest;whiteSpace=wrap;html=1;" parent="X5T_Op0z2veCH_wAgRr7-213" vertex="1">
          <mxGeometry y="156" width="150" height="26" as="geometry" />
        </mxCell>
        <mxCell id="X5T_Op0z2veCH_wAgRr7-220" value="-" style="text;strokeColor=none;fillColor=none;align=center;verticalAlign=top;spacingLeft=4;spacingRight=4;overflow=hidden;rotatable=0;points=[[0,0.5],[1,0.5]];portConstraint=eastwest;whiteSpace=wrap;html=1;" parent="X5T_Op0z2veCH_wAgRr7-213" vertex="1">
          <mxGeometry y="182" width="150" height="26" as="geometry" />
        </mxCell>
        <mxCell id="X5T_Op0z2veCH_wAgRr7-221" value="-" style="text;strokeColor=none;fillColor=none;align=center;verticalAlign=top;spacingLeft=4;spacingRight=4;overflow=hidden;rotatable=0;points=[[0,0.5],[1,0.5]];portConstraint=eastwest;whiteSpace=wrap;html=1;" parent="X5T_Op0z2veCH_wAgRr7-213" vertex="1">
          <mxGeometry y="208" width="150" height="26" as="geometry" />
        </mxCell>
        <mxCell id="X5T_Op0z2veCH_wAgRr7-222" value="-" style="text;strokeColor=none;fillColor=none;align=center;verticalAlign=top;spacingLeft=4;spacingRight=4;overflow=hidden;rotatable=0;points=[[0,0.5],[1,0.5]];portConstraint=eastwest;whiteSpace=wrap;html=1;" parent="X5T_Op0z2veCH_wAgRr7-213" vertex="1">
          <mxGeometry y="234" width="150" height="26" as="geometry" />
        </mxCell>
        <mxCell id="X5T_Op0z2veCH_wAgRr7-223" value="-" style="text;strokeColor=none;fillColor=none;align=center;verticalAlign=top;spacingLeft=4;spacingRight=4;overflow=hidden;rotatable=0;points=[[0,0.5],[1,0.5]];portConstraint=eastwest;whiteSpace=wrap;html=1;" parent="X5T_Op0z2veCH_wAgRr7-213" vertex="1">
          <mxGeometry y="260" width="150" height="26" as="geometry" />
        </mxCell>
        <mxCell id="kofdt4RUw2W4vnHMZgNQ-1" value="自动答题整个流程" style="rounded=0;whiteSpace=wrap;html=1;align=left;verticalAlign=top;spacingLeft=10;spacingTop=10;" vertex="1" parent="1">
          <mxGeometry x="1380" y="730" width="200" height="80" as="geometry" />
        </mxCell>
        <mxCell id="kofdt4RUw2W4vnHMZgNQ-2" value="" style="rounded=1;whiteSpace=wrap;html=1;" vertex="1" parent="1">
          <mxGeometry x="1430" y="880" width="120" height="60" as="geometry" />
        </mxCell>
      </root>
    </mxGraphModel>
  </diagram>
</mxfile>
